<svg width="402" height="128" viewBox="0 0 402 128" fill="none" xmlns="http://www.w3.org/2000/svg">
<g id="8">
<g id="vector-8">
<path d="M388 126C388 127.105 387.105 128 386 128H6C4.89542 128 4 127.105 4 126V2C4 0.895432 4.89542 0 6 0H386C387.105 0 388 0.895432 388 2V126Z" fill="#8FD57D"/>
<path d="M6 2V0H386V2H6ZM6 126H386V0L386.204 0.0107422C387.213 0.113001 388 0.964348 388 2V126C388 127.105 387.105 128 386 128H6C4.89542 128 4 127.105 4 126V2C4 0.895432 4.89542 0 6 0V126Z" fill="black"/>
<path d="M4 28H68V64H4V28Z" fill="#D9D9D9"/>
<path d="M68 28V64H4V28H68ZM6 62H66V30H6V62Z" fill="white"/>
<path d="M4 64H68V100H4V64Z" fill="#D9D9D9"/>
<path d="M68 64V100H4V64H68ZM6 98H66V66H6V98Z" fill="white"/>
<path d="M68 64H132V100H68V64Z" fill="#D9D9D9"/>
<path d="M132 64V100H68V64H132ZM70 98H130V66H70V98Z" fill="white"/>
<path d="M260 64H324V100H260V64Z" fill="#8C865B"/>
<path d="M324 64V100H260V64H324ZM262 98H322V66H262V98Z" fill="white"/>
<path d="M324 46H388V82H324V46Z" fill="#8C865B"/>
<path d="M388 46V82H324V46H388ZM326 80H386V48H326V80Z" fill="white"/>
<path d="M196 46H260V82H196V46Z" fill="#8C865B"/>
<path d="M260 46V82H196V46H260ZM198 80H258V48H198V80Z" fill="white"/>
<path d="M132 28H196V64H132V28Z" fill="#D9D9D9"/>
<path d="M196 28V64H132V28H196ZM134 62H194V30H134V62Z" fill="white"/>
<path d="M132 64H196V100H132V64Z" fill="#D9D9D9"/>
<path d="M196 64V100H132V64H196ZM134 98H194V66H134V98Z" fill="white"/>
<path d="M68 28H132V64H68V28Z" fill="#D9D9D9"/>
<path d="M132 28V64H68V28H132ZM70 62H130V30H70V62Z" fill="white"/>
<path d="M260 28H324V64H260V28Z" fill="#8C865B"/>
<path d="M324 28V64H260V28H324ZM262 62H322V30H262V62Z" fill="white"/>
</g>
<circle id="goal-6b" cx="388" cy="46" r="4" fill="#FF7700"/>
<circle id="goal-6" cx="388" cy="82" r="4" fill="#FF7700"/>
<circle id="goal-5b" cx="324" cy="28" r="4" fill="#FF7700"/>
<circle id="goal-5" cx="324" cy="100" r="4" fill="#FF7700"/>
<circle id="goal-4b" cx="260" cy="46" r="4" fill="#FF7700"/>
<circle id="goal-4" cx="260" cy="82" r="4" fill="#FF7700"/>
<circle id="goal-3b" cx="196" cy="28" r="4" fill="#FF7700"/>
<circle id="goal-3" cx="196" cy="100" r="4" fill="#FF7700"/>
<circle id="goal-2b" cx="132" cy="28" r="4" fill="#FF7700"/>
<circle id="goal-2" cx="132" cy="100" r="4" fill="#FF7700"/>
<circle id="goal-1b" cx="68" cy="28" r="4" fill="#FF7700"/>
<circle id="goal-1" cx="68" cy="100" r="4" fill="#FF7700"/>
<circle id="exit-dir" cx="398" cy="64" r="4" fill="#00FF09"/>
<circle id="exit-point" cx="388" cy="64" r="4" fill="#00FF09"/>
<circle id="center-point" cx="196" cy="64" r="4" fill="#D500FF"/>
<circle id="entry-dir" cx="14" cy="64" r="4" fill="#FF0000"/>
<circle id="entry-point" cx="4" cy="64" r="4" fill="#FF0000"/>
</g>
</svg>
