<svg width="210" height="128" viewBox="0 0 210 128" fill="none" xmlns="http://www.w3.org/2000/svg">
<g id="9-upp">
<g id="vector-9-upp">
<path d="M194 0C195.105 2.06161e-06 196 0.895432 196 2V126C196 127.105 195.105 128 194 128H6C4.89543 128 4 127.105 4 126V2C4 0.895431 4.89543 3.22133e-08 6 0H194Z" fill="#8FD57D"/>
<path d="M194 126V128H6V126H194ZM194 2H6V128C4.89543 128 4 127.105 4 126V2C4 0.895431 4.89543 3.22133e-08 6 0H194C195.105 2.06161e-06 196 0.895432 196 2V126C196 127.105 195.105 128 194 128V2Z" fill="black"/>
<path d="M4 10H68V46H4V10Z" fill="#D9D9D9"/>
<path d="M68 10V46H4V10H68ZM6 44H66V12H6V44Z" fill="white"/>
<path d="M68 46H132V82H68V46Z" fill="#D9D9D9"/>
<path d="M132 46V82H68V46H132ZM70 80H130V48H70V80Z" fill="white"/>
<path d="M68 10H132V46H68V10Z" fill="#D9D9D9"/>
<path d="M132 10V46H68V10H132ZM70 44H130V12H70V44Z" fill="white"/>
<path d="M68 82H132V118H68V82Z" fill="#D9D9D9"/>
<path d="M132 82V118H68V82H132ZM70 116H130V84H70V116Z" fill="white"/>
<path d="M4 46H68V82H4V46Z" fill="#D9D9D9"/>
<path d="M68 46V82H4V46H68ZM6 80H66V48H6V80Z" fill="white"/>
<path d="M4 82H68V118H4V82Z" fill="#D9D9D9"/>
<path d="M68 82V118H4V82H68ZM6 116H66V84H6V116Z" fill="white"/>
<path d="M132 64H196V100H132V64Z" fill="#D9D9D9"/>
<path d="M196 64V100H132V64H196ZM134 98H194V66H134V98Z" fill="white"/>
<path d="M132 28H196V64H132V28Z" fill="#D9D9D9"/>
<path d="M196 28V64H132V28H196ZM134 62H194V30H134V62Z" fill="white"/>
</g>
<circle id="goal-3b" cx="196" cy="28" r="4" fill="#FF7700"/>
<circle id="goal-3" cx="196" cy="100" r="4" fill="#FF7700"/>
<circle id="goal-2b" cx="132" cy="10" r="4" fill="#FF7700"/>
<circle id="goal-2" cx="132" cy="118" r="4" fill="#FF7700"/>
<circle id="goal-1b" cx="68" cy="10" r="4" fill="#FF7700"/>
<circle id="goal-1" cx="68" cy="118" r="4" fill="#FF7700"/>
<circle id="exit-dir" cx="206" cy="64" r="4" fill="#00FF09"/>
<circle id="exit-point" cx="196" cy="64" r="4" fill="#00FF09"/>
<circle id="center-point" cx="100" cy="64" r="4" fill="#D500FF"/>
<circle id="entry-dir" cx="14" cy="64" r="4" fill="#FF0000"/>
<circle id="entry-point" cx="4" cy="64" r="4" fill="#FF0000"/>
</g>
</svg>
