<svg width="164" height="174" viewBox="0 0 164 174" fill="none" xmlns="http://www.w3.org/2000/svg">
<g id="eg-upp">
<g id="vector-eg-upp">
<path d="M3.88745 0.158075C24.7824 0.0359722 45.4968 4.87522 64.848 12.7586C84.1991 20.6419 101.808 32.2597 116.669 46.9483C131.531 61.6369 143.353 79.1089 151.462 98.3666C159.571 117.624 163.653 139.263 163.775 160.158H35.8875C35.8631 155.997 35.6319 151.655 34.0172 147.82C32.4026 143.985 30.0484 140.506 27.0893 137.582C24.1301 134.657 20.6238 132.343 16.7706 130.774C12.9174 129.204 8.04805 128.134 3.88745 128.158L3.88745 0.158075Z" fill="#8FD57D"/>
<path d="M3.88745 0.158075C24.7824 0.0359722 45.4968 4.87522 64.848 12.7586L66.6568 13.5083C85.2969 21.3708 102.272 32.7186 116.669 46.9483L118.054 48.3337C132.266 62.7309 143.607 79.7107 151.462 98.3666L152.212 100.176C159.832 118.916 163.657 139.916 163.775 160.158H35.8875C35.8647 156.257 35.7337 152.169 34.3106 148.543L34.0172 147.82C32.4026 143.985 30.0484 140.506 27.0893 137.582C24.315 134.839 21.0596 132.635 17.4885 131.077L16.7706 130.774C13.1581 129.302 9.30698 128.511 5.41136 128.438L3.88745 128.158L3.88745 0.158075ZM5.89909 126.158C9.63962 126.359 14.047 127.505 17.5247 128.921C21.6212 130.59 25.349 133.05 28.495 136.159C31.6409 139.269 34.1439 142.968 35.8604 147.044C37.3177 150.505 37.6432 154.42 37.8875 158.158L161.966 157.919C161.595 137.969 157.367 117.543 149.619 99.1423C141.612 80.1268 129.938 62.8744 115.264 48.3705C100.589 33.8666 83.2016 22.3955 64.0939 14.6112C45.6035 7.07857 25.8406 2.29545 5.88745 2.15808L5.89909 126.158Z" fill="black"/>
<path d="M97.5 67.587C109.84 79.7841 120.027 95.7498 126.761 111.741C133.494 127.732 135.786 142.807 135.887 160.158L99.8875 160.158C99.8137 147.531 97.8688 137.224 92.9685 125.587C88.0683 113.95 81.5743 100.953 72.5937 92.0767L97.5 67.587Z" fill="#E03232"/>
<path d="M97.5 67.587C109.84 79.7841 120.027 95.7498 126.761 111.741L127.383 113.243C133.711 128.804 135.789 143.35 135.887 160.158L99.8875 160.158C99.816 147.926 98.6657 138.119 94.0605 126.794L92.9685 125.587C88.0683 113.95 81.5743 100.953 72.5937 92.0767L97.5 67.587ZM74.8875 92.0722C83.3955 100.831 90.7076 113.66 95.4509 124.925C100.194 136.19 101.209 145.829 101.529 158.035L133.469 158.348C133.121 141.942 131.291 127.652 124.918 112.517C118.545 97.3828 108.992 82.4669 97.5 70.7537L74.8875 92.0722Z" fill="white"/>
<path d="M3.88745 28.1581C21.3776 28.0253 38.7344 31.5028 54.9233 38.1242C71.1122 44.7457 85.1161 55.2354 97.5 67.587L72.5937 92.0722C63.5814 83.0835 53.0864 76.2381 41.3051 71.4194C29.5239 66.6007 16.6157 64.0615 3.88745 64.1581L3.88745 28.1581Z" fill="#E03232"/>
<path d="M3.88745 28.1581C21.3776 28.0253 38.7344 31.5028 54.9233 38.1242C71.1122 44.7457 85.1161 55.2354 97.5 67.587L72.5937 92.0722C63.5814 83.0835 53.0864 76.2381 41.3051 71.4194C29.5239 66.6007 16.6157 64.0615 3.88745 64.1581L3.88745 28.1581ZM5.88745 62.1581C18.2012 62.3155 30.6532 64.9019 42.0624 69.5684C53.4713 74.2348 63.6993 81.1413 72.5937 89.6581L94.8875 67.6581C82.9938 56.1547 69.4924 46.2444 54.1661 39.9757C38.8393 33.7069 22.4628 30.4251 5.9163 30.2965L5.88745 62.1581Z" fill="white"/>
<path d="M72.5937 92.0722C81.6959 101.037 88.4283 111.225 93.3699 123.007C98.3115 134.788 99.8708 147.382 99.8875 160.158L63.9287 160.158C63.9183 152.232 62.6529 144.486 59.587 137.176C56.5212 129.867 52.0346 123.239 46.3875 117.677L72.5937 92.0722Z" fill="#E03232"/>
<path d="M72.5937 92.0722C81.6959 101.037 88.4283 111.225 93.3699 123.007C98.3115 134.788 99.8708 147.382 99.8875 160.158L63.9287 160.158C63.9183 152.232 62.6529 144.486 59.587 137.176C56.5212 129.867 52.0346 123.239 46.3875 117.677L72.5937 92.0722ZM49.1923 117.679C54.3715 123.121 58.5217 129.465 61.4318 136.403C64.342 143.342 65.635 150.595 65.8875 158.104L97.8875 158.042C97.6217 146.213 96.1224 134.581 91.5412 123.658C86.96 112.736 80.8461 102.757 72.5937 94.2778L49.1923 117.679Z" fill="white"/>
<path d="M3.88745 64.1581C16.6624 63.9943 29.4349 66.0439 41.2851 70.8185C53.1354 75.5931 63.5008 83.102 72.5937 92.0767L46.3875 117.677C40.7461 112.109 34.9463 107.76 27.5942 104.798C20.2422 101.836 11.8132 100.056 3.88745 100.158L3.88745 64.1581Z" fill="#E03232"/>
<path d="M3.88745 64.1581C16.6624 63.9943 29.4349 66.0439 41.2851 70.8185C53.1354 75.5931 63.5008 83.102 72.5937 92.0767L46.3875 117.677C40.9225 112.283 35.3636 108.036 28.2819 105.08L27.5942 104.798C20.2422 101.836 11.8132 100.056 3.88745 100.158L3.88745 64.1581ZM5.89909 98.1581C13.4105 98.3046 21.3629 100.132 28.3417 102.944C35.3203 105.755 41.3728 110.056 46.8875 115.158L70.3875 92.1581C61.7922 84.0262 51.5241 77.1 40.5381 72.6735C29.5521 68.2471 17.7194 66.2568 5.88745 66.1581L5.89909 98.1581Z" fill="white"/>
</g>
<circle id="goal-2b" cx="136" cy="160" r="4" transform="rotate(-90 136 160)" fill="#FF7700"/>
<circle id="goal-2" cx="64" cy="160" r="4" transform="rotate(-90 64 160)" fill="#FF7700"/>
<circle id="goal-1b" cx="45.8875" cy="118.158" r="4" transform="rotate(-90 45.8875 118.158)" fill="#FF7700"/>
<circle id="goal-1" cx="97.8875" cy="67.1581" r="4" transform="rotate(-90 97.8875 67.1581)" fill="#FF7700"/>
<circle id="exit-dir" cx="100" cy="170" r="4" transform="rotate(-90 100 170)" fill="#00FF09"/>
<circle id="exit-point" cx="100" cy="160" r="4" transform="rotate(-90 100 160)" fill="#00FF09"/>
<circle id="center-point" cx="81.8875" cy="80.1581" r="4" transform="rotate(-90 81.8875 80.1581)" fill="#D500FF"/>
<circle id="entry-dir" cx="14" cy="64" r="4" transform="rotate(-90 14 64)" fill="#FF0000"/>
<circle id="entry-point" cx="4" cy="64" r="4" transform="rotate(-90 4 64)" fill="#FF0000"/>
</g>
</svg>
