<svg width="164" height="174" viewBox="0 0 164 174" fill="none" xmlns="http://www.w3.org/2000/svg">
<g id="egi-j-upp">
<g id="vector-egi-j-upp">
<path d="M164 14C164.122 34.895 159.283 55.6094 151.399 74.9605C143.516 94.3117 131.898 111.921 117.21 126.782C102.521 141.643 85.0492 153.466 65.7915 161.575C46.5338 169.684 24.895 173.765 4.00009 173.887V46C8.16069 45.9757 12.5036 45.7444 16.3381 44.1298C20.1727 42.5151 23.6518 40.161 26.5766 37.2018C29.5014 34.2426 31.8147 30.7363 33.3844 26.8831C34.9541 23.0299 36.0243 18.1606 35.9999 14H164Z" fill="#8FD57D"/>
<path d="M164 14C164.122 34.895 159.283 55.6094 151.399 74.9605L150.65 76.7694C142.787 95.4095 131.439 112.385 117.21 126.782L115.824 128.166C101.427 142.378 84.4474 153.719 65.7915 161.575L63.9821 162.324C45.2421 169.945 24.2421 173.769 4.00009 173.887V46C7.90058 45.9772 11.9887 45.8463 15.6156 44.4231L16.3381 44.1298C20.1727 42.5151 23.6518 40.161 26.5766 37.2018C29.3186 34.4275 31.5228 31.1721 33.081 27.6011L33.3844 26.8831C34.8561 23.2706 35.6474 19.4195 35.7205 15.5239L35.9999 14H164ZM38 16.0116C37.7994 19.7522 36.6533 24.1596 35.2366 27.6373C33.5678 31.7337 31.1082 35.4615 27.9988 38.6075C24.8894 41.7535 21.1906 44.2564 17.1139 45.973C13.653 47.4303 9.73789 47.7557 5.99996 48L6.23907 172.079C26.1892 171.708 46.6148 167.479 65.0158 159.731C84.0312 151.724 101.284 140.051 115.788 125.376C130.291 110.702 141.763 93.3141 149.547 74.2064C157.08 55.7161 161.863 35.9531 162 16L38 16.0116Z" fill="black"/>
<path d="M96.571 107.613C84.374 119.953 68.4083 130.14 52.4172 136.874C36.4261 143.607 21.3506 145.899 4 146L4 110C16.6267 109.926 26.9337 107.981 38.571 103.081C50.2084 98.1809 63.2051 91.6868 72.0814 82.7062L96.571 107.613Z" fill="#D9D9D9"/>
<path d="M96.571 107.613C84.374 119.953 68.4083 130.14 52.4172 136.874L50.915 137.496C35.3537 143.824 20.8085 145.902 4 146L4 110C16.2321 109.929 26.0391 108.778 37.3636 104.173L38.571 103.081C50.2084 98.1809 63.2051 91.6868 72.0814 82.7062L96.571 107.613ZM72.0858 85C63.3269 93.508 50.4978 100.82 39.2331 105.563C27.9684 110.307 18.3293 111.321 6.1226 111.641L5.81016 143.581C22.2158 143.233 36.5065 141.403 51.6408 135.031C66.7753 128.658 81.6912 119.105 93.4043 107.613L72.0858 85Z" fill="white"/>
<path d="M136 14C136.133 31.4902 132.655 48.847 126.034 65.0359C119.412 81.2247 108.923 95.2287 96.571 107.613L72.0858 82.7062C81.0746 73.694 87.92 63.1989 92.7387 51.4177C97.5573 39.6364 100.097 26.7283 100 14L136 14Z" fill="#D9D9D9"/>
<path d="M136 14C136.133 31.4902 132.655 48.847 126.034 65.0359C119.412 81.2247 108.923 95.2287 96.571 107.613L72.0858 82.7062C81.0746 73.694 87.92 63.1989 92.7387 51.4177C97.5573 39.6364 100.097 26.7283 100 14L136 14ZM102 16C101.843 28.3137 99.2562 40.7658 94.5896 52.175C89.9232 63.5839 83.0168 73.8119 74.5 82.7062L96.5 105C108.003 93.1063 117.914 79.6049 124.182 64.2786C130.451 48.9519 133.733 32.5753 133.862 16.0289L102 16Z" fill="white"/>
<path d="M72.0858 82.7062C63.1207 91.8085 52.9329 98.5409 41.1513 103.482C29.3697 108.424 16.776 109.983 4 110L4.00009 74.0412C11.9264 74.0308 19.6722 72.7654 26.9816 69.6996C34.2911 66.6338 40.9191 62.1472 46.4811 56.5L72.0858 82.7062Z" fill="#D9D9D9"/>
<path d="M72.0858 82.7062C63.1207 91.8085 52.9329 98.5409 41.1513 103.482C29.3697 108.424 16.776 109.983 4 110L4.00009 74.0412C11.9264 74.0308 19.6722 72.7654 26.9816 69.6996C34.2911 66.6338 40.9191 62.1472 46.4811 56.5L72.0858 82.7062ZM46.4788 59.3049C41.0367 64.4841 34.6933 68.6342 27.755 71.5444C20.8165 74.4546 13.5627 75.7475 6.05392 76L6.11558 108C17.945 107.734 29.5776 106.235 40.5 101.654C51.4224 97.0726 61.4007 90.9587 69.8802 82.7062L46.4788 59.3049Z" fill="white"/>
<path d="M100 14C100.164 26.7749 98.1142 39.5474 93.3396 51.3977C88.5649 63.2479 81.056 73.6133 72.0814 82.7062L46.4811 56.5C52.0492 50.8587 56.3976 45.0588 59.3599 37.7068C62.3221 30.3547 64.1016 21.9257 64 14H100Z" fill="#D9D9D9"/>
<path d="M100 14C100.164 26.7749 98.1142 39.5474 93.3396 51.3977C88.5649 63.2479 81.056 73.6133 72.0814 82.7062L46.4811 56.5C51.875 51.0351 56.1224 45.4762 59.0784 38.3945L59.3599 37.7068C62.3221 30.3547 64.1016 21.9257 64 14H100ZM66 16.0116C65.8535 23.523 64.0264 31.4755 61.2145 38.4543C58.4028 45.4328 54.1017 51.4854 49 57L72 80.5C80.1318 71.9048 87.0581 61.6366 91.4845 50.6506C95.911 39.6647 97.9013 27.8319 98 16L66 16.0116Z" fill="white"/>
</g>
<circle id="goal-2b" cx="64" cy="14" r="4" fill="#FF7700"/>
<circle id="goal-2" cx="136" cy="14" r="4" fill="#FF7700"/>
<circle id="goal-1b" cx="46" cy="56" r="4" fill="#FF7700"/>
<circle id="goal-1" cx="97" cy="108" r="4" fill="#FF7700"/>
<circle id="exit-dir" cx="100" cy="4.00259" r="4" fill="#00FF09"/>
<circle id="exit-point" cx="100" cy="14" r="4" fill="#00FF09"/>
<circle id="center-point" cx="84" cy="92" r="4" fill="#D500FF"/>
<circle id="entry-dir" cx="14.0005" cy="110" r="4" fill="#FF0000"/>
<circle id="entry-point" cx="4" cy="110" r="4" fill="#FF0000"/>
</g>
</svg>
