<svg width="402" height="128" viewBox="0 0 402 128" fill="none" xmlns="http://www.w3.org/2000/svg">
<g id="f-upp">
<g id="vector-f-upp">
<path d="M4 2C4 0.895431 4.89543 0 6 0H386C387.105 0 388 0.895431 388 2V126C388 127.105 387.105 128 386 128H5.99999C4.89542 128 4 127.105 4 126V2Z" fill="#8FD57D"/>
<path d="M386 126V128H5.99999L6 126H386ZM386 2H6L5.99999 128L5.7959 127.989C4.78722 127.887 4 127.036 4 126V2C4 0.895431 4.89543 0 6 0H386C387.105 0 388 0.895431 388 2V126C388 127.105 387.105 128 386 128V2Z" fill="black"/>
<path d="M388 100H324V64H388V100Z" fill="#D9D9D9"/>
<path d="M324 100V64H388V100H324ZM386 66H326V98H386V66Z" fill="white"/>
<path d="M388 64H324V28H388V64Z" fill="#D9D9D9"/>
<path d="M324 64V28H388V64H324ZM386 30H326V62H386V30Z" fill="white"/>
<path d="M324 64H260V28H324V64Z" fill="#D9D9D9"/>
<path d="M260 64V28H324V64H260ZM322 30H262V62H322V30Z" fill="white"/>
<path d="M260 64H196V28H260V64Z" fill="#D9D9D9"/>
<path d="M196 64V28H260V64H196ZM258 30H198V62H258V30Z" fill="white"/>
<path d="M196 64H132V28H196V64Z" fill="#6169FF"/>
<path d="M132 64V28H196V64H132ZM194 30H134V62H194V30Z" fill="white"/>
<path d="M132 64H68V28H132V64Z" fill="#6169FF"/>
<path d="M68 64V28H132V64H68ZM130 30H70V62H130V30Z" fill="white"/>
<path d="M68 64H4V28H68V64Z" fill="#6169FF"/>
<path d="M4 64V28H68V64H4ZM66 30H6V62H66V30Z" fill="white"/>
<path d="M324 100H260V64H324V100Z" fill="#D9D9D9"/>
<path d="M260 100V64H324V100H260ZM322 66H262V98H322V66Z" fill="white"/>
<path d="M260 100H196V64H260V100Z" fill="#D9D9D9"/>
<path d="M196 100V64H260V100H196ZM258 66H198V98H258V66Z" fill="white"/>
<path d="M196 100H132V64H196V100Z" fill="#6169FF"/>
<path d="M132 100V64H196V100H132ZM194 66H134V98H194V66Z" fill="white"/>
<path d="M132 100H68V64H132V100Z" fill="#6169FF"/>
<path d="M68 100V64H132V100H68ZM130 66H70V98H130V66Z" fill="white"/>
<path d="M68 100H4V64H68V100Z" fill="#6169FF"/>
<path d="M4 100V64H68V100H4ZM66 66H6V98H66V66Z" fill="white"/>
</g>
<circle id="goal-6b" cx="388" cy="28" r="4" fill="#FF7700"/>
<circle id="goal-6" cx="388" cy="100" r="4" fill="#FF7700"/>
<circle id="goal-5b" cx="324" cy="28" r="4" fill="#FF7700"/>
<circle id="goal-5" cx="324" cy="100" r="4" fill="#FF7700"/>
<circle id="goal-4b" cx="260" cy="28" r="4" fill="#FF7700"/>
<circle id="goal-4" cx="260" cy="100" r="4" fill="#FF7700"/>
<circle id="goal-3b" cx="196" cy="28" r="4" fill="#FF7700"/>
<circle id="goal-3" cx="196" cy="100" r="4" fill="#FF7700"/>
<circle id="goal-2b" cx="132" cy="28" r="4" fill="#FF7700"/>
<circle id="goal-2" cx="132" cy="100" r="4" fill="#FF7700"/>
<circle id="goal-1b" cx="68" cy="28" r="4" fill="#FF7700"/>
<circle id="goal-1" cx="68" cy="100" r="4" fill="#FF7700"/>
<circle id="exit-dir" cx="398" cy="64" r="4" fill="#00FF09"/>
<circle id="exit-point" cx="388" cy="64" r="4" fill="#00FF09"/>
<circle id="center-point" cx="196" cy="64" r="4" fill="#D500FF"/>
<circle id="entry-dir" cx="14" cy="64" r="4" fill="#FF0000"/>
<circle id="entry-point" cx="4" cy="64" r="4" fill="#FF0000"/>
</g>
</svg>
