<svg width="179" height="164" viewBox="0 0 179 164" fill="none" xmlns="http://www.w3.org/2000/svg">
<g id="h-upp">
<g id="vector-hqt-s-upp">
<path d="M4.0042 0.645505C85.2237 -4.61171 138.593 22.1521 177.988 73.1084L132.734 118.364L87.4788 163.618C55.6801 128.603 54.7785 127.024 4 127.001L4.0042 0.645505Z" fill="#8FD57D"/>
<path d="M4.0042 0.645505C85.2237 -4.61171 138.593 22.1521 177.988 73.1084L132.734 118.364L87.4788 163.618C55.6801 128.603 54.7785 127.024 4 127.001L4.0042 0.645505ZM5.94619 124.887C17.6386 124.894 26.696 124.922 34.0976 125.449C41.9377 126.007 48.0548 127.128 53.618 129.433C64.3642 133.885 72.5728 144.395 87.4788 160.79L131.319 116.95L175.16 73.1087C155.869 48.538 133.474 29.9121 105.913 17.8056C78.2595 5.65812 45.5212 0.199751 6.0031 2.52636L5.94619 124.887Z" fill="black"/>
<path d="M4.00011 28.4829C42.8897 28.4829 65.9366 31.9829 91.9363 45.4829L72.9366 77.4829C55.9366 67.7427 25.8464 65.0106 4.00011 65.0006L4.00011 28.4829Z" fill="#6169FF"/>
<path d="M4.00011 28.4829C42.8897 28.4829 65.9366 31.9829 91.9363 45.4829L72.9366 77.4829C56.4677 68.0471 27.6426 65.1508 6.00011 65.0006H4.00011L4.00011 28.4829ZM6.00018 63.4902C16.551 63.5606 28.8184 64.1635 40.5708 65.8547C52.2367 67.5334 63.5591 70.3068 72.2006 74.804L89.1278 46.2959C64.7352 34.0236 42.589 30.6066 5.99934 30.489L6.00018 63.4902Z" fill="white"/>
<path d="M4.00011 65.0006C34.4153 65.0006 52.4367 65.6976 73.9369 76.1976L58.9367 106.698C40.9366 100.698 28.415 99.2154 4.00011 99.2154L4.00011 65.0006Z" fill="#6169FF"/>
<path d="M4.00011 65.0006C34.4153 65.0006 52.4367 65.6976 73.9369 76.1976L58.9367 106.698C41.4992 100.885 29.223 99.2957 6.27579 99.2021L4.00011 99.2154L4.00011 65.0006ZM6.02134 97.2023C28.5428 97.2829 41.0033 98.7806 57.9084 104.256L71.2502 77.1302C51.4258 67.8363 34.2968 66.268 6.02111 66.2013L6.02134 97.2023Z" fill="white"/>
<path d="M72.9366 77.4829C100.937 89.9828 120.354 103.233 132.734 118.364L107.278 143.82C90.9306 126.194 82.4366 114.983 57.9367 106.983L72.9366 77.4829Z" fill="#6169FF"/>
<path d="M72.9366 77.4829C100.937 89.9828 120.354 103.233 132.734 118.364L107.278 143.82C90.9306 126.194 82.4366 114.983 57.9367 106.983L72.9366 77.4829ZM60.7683 105.827C83.4735 113.718 92.3057 124.765 107.278 140.991L129.552 118.717C117.151 104.973 99.8521 91.8961 73.8526 80.0921L60.7683 105.827Z" fill="white"/>
<path d="M91.9363 45.4829C122.436 58.9829 135.689 72.4079 158.189 92.908L132.734 118.364C119.234 101.864 90.33 86.0247 72.9366 77.4829L91.9363 45.4829Z" fill="#6169FF"/>
<path d="M91.9363 45.4829C122.436 58.9829 135.689 72.4079 158.189 92.908L132.734 118.364C119.234 101.864 90.33 86.0247 72.9366 77.4829L91.9363 45.4829ZM75.7567 76.6492C84.2304 80.8786 95.2034 86.3778 105.5 93.0343C115.842 99.7202 125.79 107.632 132.734 115.535L155.361 92.908C134.173 73.5591 121.081 60.8339 92.7452 48.0365L75.7567 76.6492Z" fill="white"/>
</g>
<circle id="goal-2b" cx="158.189" cy="92.9074" r="4" transform="rotate(45 158.189 92.9074)" fill="#FF7700"/>
<circle id="goal-2" cx="107.278" cy="143.819" r="4" transform="rotate(45 107.278 143.819)" fill="#FF7700"/>
<circle id="goal-1b" cx="92.0002" cy="44.9999" r="4" fill="#FF7700"/>
<circle id="goal-1" cx="59" cy="107" r="4" fill="#FF7700"/>
<circle id="exit-dir" cx="139.802" cy="125.432" r="4" transform="rotate(45 139.802 125.432)" fill="#00FF09"/>
<circle id="exit-point" cx="132.734" cy="118.363" r="4" transform="rotate(45 132.734 118.363)" fill="#00FF09"/>
<circle id="center-point" cx="92.4365" cy="80.4823" r="4" fill="#D500FF"/>
<circle id="entry-dir" cx="14" cy="65.0001" r="4" fill="#FF0000"/>
<circle id="entry-point" cx="4" cy="65.0001" r="4" fill="#FF0000"/>
</g>
</svg>
