<svg width="179" height="164" viewBox="0 0 179 164" fill="none" xmlns="http://www.w3.org/2000/svg">
<g id="hqt-s-upp">
<g id="vector-hqt-s-upp">
<path d="M178.276 90.042C124.563 151.19 67.9003 170.003 4.01192 161.828L4.01148 97.828L4.01191 33.8285C51.256 36.1024 53.0106 36.5819 88.9328 0.69249L178.276 90.042Z" fill="#8FD57D"/>
<path d="M178.276 90.042C124.563 151.19 67.9003 170.003 4.01192 161.828L4.01148 97.828L4.01191 33.8285C51.256 36.1024 53.0106 36.5819 88.9328 0.69249L178.276 90.042ZM89.0511 3.5631C80.7785 11.8261 74.3542 18.211 68.7479 23.0721C62.8095 28.2212 57.6911 31.7537 52.1276 34.0578C41.3809 38.5085 28.1446 36.8809 6.01149 35.8281L6.01148 159.828C37.0263 163.562 66.0329 160.896 94.0817 149.969C122.225 139.004 149.235 119.714 175.533 90.1255L89.0511 3.5631Z" fill="black"/>
<path d="M158.595 70.3551C131.096 97.8542 112.325 111.676 84.3941 120.515L75.2016 84.4523C94.1097 79.3189 117.319 59.9738 132.773 44.5332L158.595 70.3551Z" fill="#D9D9D9"/>
<path d="M158.595 70.3551C131.096 97.8542 112.325 111.676 84.3941 120.515L75.2016 84.4523C93.5189 79.4792 115.949 61.1447 131.359 45.9474L132.773 44.5332L158.595 70.3551ZM132.427 47.0155C124.917 54.4262 115.816 62.6743 106.31 69.7887C96.8739 76.8507 86.9067 82.8958 77.6163 85.8262L85.8052 117.954C111.731 109.383 129.807 96.1399 155.763 70.3502L132.427 47.0155Z" fill="white"/>
<path d="M132.773 44.5332C111.267 66.04 98.0306 78.2901 75.403 86.0685L64.4431 53.895C81.4137 45.4096 91.3159 37.6036 108.58 20.3397L132.773 44.5332Z" fill="#D9D9D9"/>
<path d="M132.773 44.5332C111.267 66.04 98.0306 78.2901 75.403 86.0685L64.4431 53.895C80.8833 45.6748 90.6878 38.1181 106.98 21.9582L108.58 20.3397L132.773 44.5332ZM108.574 23.1924C92.592 39.0604 82.7221 46.8123 66.8967 54.8943L76.6434 83.5092C97.2332 76.0631 110.454 65.0599 130.495 45.1132L108.574 23.1924Z" fill="white"/>
<path d="M75.2016 84.4523C46.5636 95.4127 23.4648 99.7734 4.01148 97.828L4.01149 61.8281C28.0338 62.7319 41.9676 64.6533 64.9485 52.9861L75.2016 84.4523Z" fill="#D9D9D9"/>
<path d="M75.2016 84.4523C46.5636 95.4127 23.4648 99.7734 4.01148 97.828L4.01149 61.8281C28.0338 62.7319 41.9676 64.6533 64.9485 52.9861L75.2016 84.4523ZM63.7635 55.8057C42.1286 66.2808 28.0722 64.715 6.01149 63.8281L6.01148 95.328C24.4987 96.2787 45.9777 93.2928 72.7088 83.255L63.7635 55.8057Z" fill="white"/>
<path d="M84.3941 120.515C53.2815 132.535 34.4173 132.414 4.01147 133.828L4.01148 97.828C25.2247 99.9494 56.8626 90.7114 75.2016 84.4523L84.3941 120.515Z" fill="#D9D9D9"/>
<path d="M84.3941 120.515C53.2815 132.535 34.4173 132.414 4.01147 133.828L4.01148 97.828C25.2247 99.9494 56.8626 90.7114 75.2016 84.4523L84.3941 120.515ZM73.797 87.036C64.8145 90.0371 53.1668 93.9077 41.1793 96.4816C29.1386 99.067 16.5096 100.507 6.01148 99.828L6.01148 131.828C34.6755 130.527 52.9306 130.269 82.0165 119.281L73.797 87.036Z" fill="white"/>
</g>
<circle id="goal-2b" cx="109" cy="20" r="4" transform="rotate(180 109 20)" fill="#FF7700"/>
<circle id="goal-2" cx="159" cy="70" r="4" transform="rotate(180 159 70)" fill="#FF7700"/>
<circle id="goal-1b" cx="64.1845" cy="53.726" r="4" transform="rotate(135 64.1845 53.726)" fill="#FF7700"/>
<circle id="goal-1" cx="84.6906" cy="120.901" r="4" transform="rotate(135 84.6906 120.901)" fill="#FF7700"/>
<circle id="center-point" cx="59.2921" cy="96.1201" r="4" transform="rotate(135 59.2921 96.1201)" fill="#D500FF"/>
<circle id="exit-dir" cx="139.845" cy="37.4626" r="4" transform="rotate(135 139.845 37.4626)" fill="#00FF09"/>
<circle id="exit-point" cx="132.774" cy="44.5336" r="4" transform="rotate(135 132.774 44.5336)" fill="#00FF09"/>
<circle id="entry-dir" cx="14.02" cy="97.8285" r="4" transform="rotate(180 14.02 97.8285)" fill="#FF0000"/>
<circle id="entry-point" cx="4.01196" cy="97.8284" r="4" transform="rotate(180 4.01196 97.8284)" fill="#FF0000"/>
</g>
</svg>
