<svg width="179" height="164" viewBox="0 0 179 164" fill="none" xmlns="http://www.w3.org/2000/svg">
<g id="kr-upp">
<g id="vector-kr-upp">
<path d="M178.276 90.0419C124.563 151.19 67.9003 170.003 4.01192 161.828L4.01148 97.8279L4.01191 33.8284C51.256 36.1023 53.0106 36.5818 88.9328 0.692383L178.276 90.0419Z" fill="#8FD57D"/>
<path d="M178.276 90.0419C124.563 151.19 67.9003 170.003 4.01192 161.828L4.01148 97.8279L4.01191 33.8284C51.256 36.1023 53.0106 36.5818 88.9328 0.692383L178.276 90.0419ZM89.0511 3.56299C80.7785 11.826 74.3542 18.2109 68.7479 23.072C62.8095 28.2211 57.6911 31.7535 52.1276 34.0577C41.3809 38.5084 28.1446 36.8808 6.01149 35.8279L6.01148 159.828C37.0263 163.562 66.0329 160.896 94.0817 149.969C122.225 139.004 149.235 119.714 175.533 90.1254L89.0511 3.56299Z" fill="black"/>
<path d="M158.595 70.355C131.096 97.8541 112.325 111.676 84.3941 120.515L75.2016 84.4522C94.1097 79.3188 117.319 59.9737 132.773 44.5331L158.595 70.355Z" fill="#E03232"/>
<path d="M158.595 70.355C131.096 97.8541 112.325 111.676 84.3941 120.515L75.2016 84.4522C93.5189 79.4791 115.949 61.1446 131.359 45.9473L132.773 44.5331L158.595 70.355ZM132.427 47.0154C124.917 54.4261 115.816 62.6742 106.31 69.7885C96.8739 76.8506 86.9067 82.8957 77.6163 85.8261L85.8052 117.954C111.731 109.383 129.807 96.1398 155.763 70.3501L132.427 47.0154Z" fill="white"/>
<path d="M132.773 44.5331C111.267 66.0399 98.0306 78.29 75.403 86.0684L64.443 53.8948C81.4136 45.4095 91.3159 37.6035 108.58 20.3396L132.773 44.5331Z" fill="#E03232"/>
<path d="M132.773 44.5331C111.267 66.0399 98.0306 78.29 75.403 86.0684L64.443 53.8948C80.8832 45.6747 90.6878 38.118 106.98 21.9581L108.58 20.3396L132.773 44.5331ZM108.574 23.1923C92.592 39.0603 82.7221 46.8122 66.8967 54.8942L76.6434 83.5091C97.2332 76.063 110.454 65.0598 130.495 45.1131L108.574 23.1923Z" fill="white"/>
<path d="M75.2016 84.4522C46.5636 95.4126 23.4648 99.7733 4.01148 97.8279L4.01149 61.8279C28.0338 62.7318 41.9676 64.6532 64.9485 52.986L75.2016 84.4522Z" fill="#E03232"/>
<path d="M75.2016 84.4522C46.5636 95.4126 23.4648 99.7733 4.01148 97.8279L4.01149 61.8279C28.0338 62.7318 41.9676 64.6532 64.9485 52.986L75.2016 84.4522ZM63.7635 55.8056C42.1286 66.2807 28.0722 64.7149 6.01149 63.8279L6.01148 95.3279C24.4987 96.2786 45.9777 93.2927 72.7088 83.2549L63.7635 55.8056Z" fill="white"/>
<path d="M84.3941 120.515C53.2815 132.535 34.4173 132.414 4.01147 133.828L4.01148 97.8279C25.2247 99.9492 56.8626 90.7113 75.2016 84.4522L84.3941 120.515Z" fill="#E03232"/>
<path d="M84.3941 120.515C53.2815 132.535 34.4173 132.414 4.01147 133.828L4.01148 97.8279C25.2247 99.9492 56.8626 90.7113 75.2016 84.4522L84.3941 120.515ZM73.797 87.0358C64.8145 90.037 53.1668 93.9076 41.1793 96.4815C29.1386 99.0669 16.5096 100.507 6.01148 99.8279L6.01148 131.828C34.6755 130.527 52.9306 130.268 82.0165 119.281L73.797 87.0358Z" fill="white"/>
</g>
<circle id="goal-2b" cx="109" cy="20" r="4" transform="rotate(180 109 20)" fill="#FF7700"/>
<circle id="goal-2" cx="159" cy="70" r="4" transform="rotate(180 159 70)" fill="#FF7700"/>
<circle id="goal-1b" cx="64.1845" cy="53.726" r="4" transform="rotate(135 64.1845 53.726)" fill="#FF7700"/>
<circle id="goal-1" cx="84.6906" cy="120.901" r="4" transform="rotate(135 84.6906 120.901)" fill="#FF7700"/>
<circle id="center-point" cx="59.2921" cy="96.1201" r="4" transform="rotate(135 59.2921 96.1201)" fill="#D500FF"/>
<circle id="exit-dir" cx="139.845" cy="37.4625" r="4" transform="rotate(135 139.845 37.4625)" fill="#00FF09"/>
<circle id="exit-point" cx="132.774" cy="44.5336" r="4" transform="rotate(135 132.774 44.5336)" fill="#00FF09"/>
<circle id="entry-dir" cx="14.02" cy="97.8285" r="4" transform="rotate(180 14.02 97.8285)" fill="#FF0000"/>
<circle id="entry-point" cx="4.01196" cy="97.8284" r="4" transform="rotate(180 4.01196 97.8284)" fill="#FF0000"/>
</g>
</svg>
