<svg width="165" height="175" viewBox="0 0 165 175" fill="none" xmlns="http://www.w3.org/2000/svg">
<g id="o-upp">
<g id="o-upp_2">
<path d="M164.1 14.8874C164.222 35.7824 159.382 56.4968 151.499 75.848C143.616 95.1991 131.998 112.808 117.309 127.669C102.621 142.531 85.1488 154.353 65.8911 162.462C46.6334 170.571 24.9946 174.653 4.0997 174.775V46.8874C8.2603 46.8631 12.6032 46.6318 16.4378 45.0172C20.2723 43.4025 23.7514 41.0484 26.6762 38.0892C29.601 35.13 31.9143 31.6237 33.484 27.7705C35.0537 23.9173 36.1239 19.048 36.0996 14.8874H164.1Z" fill="#8FD57D"/>
<path d="M164.1 14.8874C164.222 35.7824 159.382 56.4968 151.499 75.848L150.749 77.6568C142.887 96.2969 131.539 113.272 117.309 127.669L115.924 129.054C101.527 143.266 84.547 154.607 65.8911 162.462L64.0817 163.212C45.3417 170.832 24.3417 174.657 4.0997 174.775V46.8874C8.00019 46.8646 12.0883 46.7337 15.7152 45.3106L16.4378 45.0172C20.2723 43.4025 23.7514 41.0484 26.6762 38.0892C29.4182 35.3149 31.6224 32.0596 33.1807 28.4885L33.484 27.7705C34.9557 24.158 35.747 20.3069 35.8201 16.4113L36.0996 14.8874H164.1ZM38.0996 16.8991C37.899 20.6396 36.7529 25.047 35.3362 28.5247C33.6674 32.6212 31.2078 36.3489 28.0984 39.4949C24.989 42.6409 21.2902 45.1438 17.2135 46.8604C13.7526 48.3177 9.8375 48.6432 6.09956 48.8874L6.33868 172.966C26.2888 172.595 46.7144 168.367 65.1154 160.619C84.1309 152.612 101.383 140.938 115.887 126.264C130.391 111.589 141.862 94.2016 149.646 75.0939C157.179 56.6035 161.962 36.8406 162.1 16.8874L38.0996 16.8991Z" fill="black"/>
<path d="M96.6707 108.5C84.4736 120.84 68.5079 131.027 52.5168 137.761C36.5257 144.494 21.4502 146.786 4.09961 146.887L4.09961 110.887C16.7263 110.814 27.0333 108.869 38.6707 103.969C50.308 99.0683 63.3047 92.5743 72.181 83.5936L96.6707 108.5Z" fill="#E03232"/>
<path d="M96.6707 108.5C84.4736 120.84 68.5079 131.027 52.5168 137.761L51.0146 138.383C35.4533 144.711 20.9081 146.789 4.09961 146.887L4.09961 110.887C16.3317 110.816 26.1387 109.666 37.4632 105.06L38.6707 103.969C50.308 99.0683 63.3047 92.5743 72.181 83.5936L96.6707 108.5ZM72.1855 85.8874C63.4265 94.3955 50.5974 101.708 39.3327 106.451C28.068 111.194 18.4289 112.209 6.22221 112.529L5.90977 144.469C22.3154 144.12 36.6061 142.291 51.7405 135.918C66.8749 129.545 81.7908 119.992 93.5039 108.5L72.1855 85.8874Z" fill="white"/>
<path d="M136.1 14.8874C136.232 32.3776 132.755 49.7344 126.133 65.9233C119.512 82.1121 109.022 96.1161 96.6707 108.5L72.1855 83.5936C81.1742 74.5814 88.0196 64.0864 92.8383 52.3051C97.657 40.5238 100.196 27.6157 100.1 14.8874L136.1 14.8874Z" fill="#E03232"/>
<path d="M136.1 14.8874C136.232 32.3776 132.755 49.7344 126.133 65.9233C119.512 82.1121 109.022 96.1161 96.6707 108.5L72.1855 83.5936C81.1742 74.5814 88.0196 64.0864 92.8383 52.3051C97.657 40.5238 100.196 27.6157 100.1 14.8874L136.1 14.8874ZM102.1 16.8874C101.942 29.2012 99.3558 41.6532 94.6893 53.0624C90.0228 64.4713 83.1164 74.6993 74.5996 83.5936L96.5996 105.887C108.103 93.9938 118.013 80.4924 124.282 65.166C130.551 49.8393 133.833 33.4628 133.961 16.9163L102.1 16.8874Z" fill="white"/>
<path d="M72.1855 83.5936C63.2203 92.6959 53.0325 99.4283 41.2509 104.37C29.4693 109.311 16.8756 110.871 4.09961 110.887L4.0997 74.9286C12.0261 74.9183 19.7718 73.6528 27.0812 70.587C34.3907 67.5212 41.0187 63.0346 46.5808 57.3874L72.1855 83.5936Z" fill="#E03232"/>
<path d="M72.1855 83.5936C63.2203 92.6959 53.0325 99.4283 41.2509 104.37C29.4693 109.311 16.8756 110.871 4.09961 110.887L4.0997 74.9286C12.0261 74.9183 19.7718 73.6528 27.0812 70.587C34.3907 67.5212 41.0187 63.0346 46.5808 57.3874L72.1855 83.5936ZM46.5784 60.1923C41.1363 65.3715 34.7929 69.5217 27.8547 72.4318C20.9161 75.342 13.6623 76.6349 6.15352 76.8874L6.21519 108.887C18.0446 108.622 29.6772 107.122 40.5996 102.541C51.522 97.96 61.5003 91.8461 69.9799 83.5936L46.5784 60.1923Z" fill="white"/>
<path d="M100.1 14.8874C100.263 27.6623 98.2138 40.4348 93.4392 52.2851C88.6645 64.1353 81.1556 74.5007 72.181 83.5936L46.5808 57.3874C52.1488 51.7461 56.4973 45.9462 59.4595 38.5942C62.4217 31.2422 64.2012 22.8131 64.0996 14.8874H100.1Z" fill="#E03232"/>
<path d="M100.1 14.8874C100.263 27.6623 98.2138 40.4348 93.4392 52.2851C88.6645 64.1353 81.1556 74.5007 72.181 83.5936L46.5808 57.3874C51.9746 51.9225 56.222 46.3636 59.178 39.2819L59.4595 38.5942C62.4217 31.2422 64.2012 22.8131 64.0996 14.8874H100.1ZM66.0996 16.8991C65.9531 24.4105 64.126 32.3629 61.3142 39.3417C58.5024 46.3202 54.2014 52.3728 49.0996 57.8874L72.0996 81.3874C80.2314 72.7922 87.1577 62.524 91.5842 51.538C96.0106 40.5521 98.0009 28.7193 98.0996 16.8874L66.0996 16.8991Z" fill="white"/>
</g>
<circle id="goal-2b" cx="64.0996" cy="14.8874" r="4" fill="#FF7700"/>
<circle id="goal-2" cx="136.1" cy="14.8874" r="4" fill="#FF7700"/>
<circle id="goal-1b" cx="46.0996" cy="56.8875" r="4" fill="#FF7700"/>
<circle id="goal-1" cx="97.0996" cy="108.887" r="4" fill="#FF7700"/>
<circle id="exit-dir" cx="100.1" cy="4.89001" r="4" fill="#00FF09"/>
<circle id="exit-point" cx="100.1" cy="14.8874" r="4" fill="#00FF09"/>
<circle id="center-point" cx="84.0996" cy="92.8875" r="4" fill="#D500FF"/>
<circle id="entry-dir" cx="14.1001" cy="110.887" r="4" fill="#FF0000"/>
<circle id="entry-point" cx="4.09961" cy="110.887" r="4" fill="#FF0000"/>
</g>
</svg>
