<svg width="458" height="280" viewBox="0 0 458 280" fill="none" xmlns="http://www.w3.org/2000/svg">
<g id="xy-upp">
<g id="vector-xy-upp">
<path d="M405 265.84C406.105 265.84 407 264.944 407 263.84V214.364C407 214.02 407.089 213.682 407.258 213.383L415.975 197.917C437.992 173.902 453 146.655 453 122.067C453 59.5335 402.257 8.83975 339.661 8.8396C312.203 8.8396 278.112 24.1836 248.49 46.6882L235.287 50.7507C235.097 50.8093 234.899 50.8396 234.699 50.8396H6C4.89543 50.8396 4 51.735 4 52.8396V176.84C4 177.944 4.89543 178.84 6 178.84H244.499C258.575 189.712 270.472 202.93 279 217.147V263.84C279 264.944 279.895 265.84 281 265.84H405Z" fill="#8FD57D"/>
<path d="M234.699 52.8396C235.101 52.8396 235.497 52.7781 235.875 52.6619L249.078 48.5994L249.418 48.4958L249.7 48.281C279.165 25.8954 312.831 10.8396 339.661 10.8396V8.8396C312.203 8.8396 278.112 24.1836 248.49 46.6882L235.287 50.7507C235.097 50.8093 234.899 50.8396 234.699 50.8396V52.8396ZM451 122.067C451 145.913 436.388 172.691 414.5 196.565L414.345 196.734L414.232 196.934L405.516 212.4C405.178 212.999 405 213.676 405 214.364V263.84H281V216.594L280.715 216.119C272.05 201.673 259.981 188.271 245.722 177.257L245.182 176.84H6V50.8396C4.89543 50.8396 4 51.735 4 52.8396V176.84C4 177.944 4.89543 178.84 6 178.84H244.499C258.575 189.712 270.472 202.93 279 217.147V263.84C279 264.944 279.895 265.84 281 265.84H405C406.105 265.84 407 264.944 407 263.84V214.364C407 214.02 407.089 213.682 407.258 213.383L415.975 197.917C437.992 173.902 453 146.655 453 122.067C453 59.5335 402.257 8.83975 339.661 8.8396V10.8396C401.154 10.8397 451 60.6399 451 122.067ZM234.699 52.8396V50.8396H6V52.8396H234.699Z" fill="black"/>
<path d="M283.5 134.34C258 116.737 230.002 114.34 195.746 114.34V150.84C223.502 150.84 243 150.84 264.5 163.34L283.5 134.34Z" fill="#D9D9D9"/>
<path d="M283.5 134.34C258 116.737 230.002 114.34 195.746 114.34V150.84C223.068 150.84 242.388 150.84 263.493 162.763L264.5 163.34L283.5 134.34ZM263.855 160.676C242.998 149.101 223.729 148.847 197.746 148.841L197.747 116.345C230.302 116.44 256.711 118.982 280.746 134.895L263.855 160.676Z" fill="white"/>
<path d="M343 265.84C343 237.34 343 224.34 332.499 198.84L300 207.84C308.5 228.34 306.999 241.34 306.999 265.84H343Z" fill="#D9D9D9"/>
<path d="M343 265.84C343 237.34 343 224.34 332.499 198.84L300 207.84C308.5 228.34 306.999 241.34 306.999 265.84H343ZM309.006 263.841C309.077 241.546 310.209 228.381 302.69 209.17L331.314 201.243C340.756 224.707 340.993 237.397 340.998 263.84L309.006 263.841Z" fill="white"/>
<path d="M343 265.975C343 238.836 343 226.34 351.628 198.975L384.5 211.34C379.128 231.34 379.128 243.336 379.128 265.975L343 265.975Z" fill="#D9D9D9"/>
<path d="M343 265.975C343 238.836 343 226.34 351.628 198.975L384.5 211.34C379.128 231.34 379.128 243.336 379.128 265.975L343 265.975ZM377.129 263.975C377.134 243.231 377.277 231.228 382.106 212.577L352.909 201.594C345.204 226.618 345.007 238.945 345.002 263.976L377.129 263.975Z" fill="white"/>
<path d="M332.499 198.84C321.499 169.84 308.5 154.84 283.501 134.34L264.5 163.34C287.254 179.234 290.5 186.34 300 207.84L332.499 198.84Z" fill="#D9D9D9"/>
<path d="M332.499 198.84C321.499 169.84 308.5 154.84 283.501 134.34L264.5 163.34C285.832 178.24 290.018 185.417 298.286 203.972L300 207.84L332.499 198.84ZM301.129 205.452C296.768 195.597 293.576 188.622 288.82 182.287C284.027 175.902 277.716 170.253 267.233 162.82L283.949 137.305C307.056 156.45 319.42 170.907 329.838 197.502L301.129 205.452Z" fill="white"/>
<path d="M285 91.3396C259.5 108.942 233 114.84 195.921 114.84L195.921 78.8818C223.676 78.8818 243 75.3396 264.5 62.8396L285 91.3396Z" fill="#D9D9D9"/>
<path d="M285 91.3396C259.5 108.942 233 114.84 195.921 114.84L195.921 78.8818C223.242 78.8818 242.394 75.4494 263.493 63.4191L264.5 62.8396L285 91.3396ZM263.929 65.4694C243.173 77.1756 224.182 80.7061 197.921 80.8727L197.921 112.832C232.886 112.626 258.091 106.94 282.175 90.8375L263.929 65.4694Z" fill="white"/>
<path d="M343 57.8396C313.5 60.3396 312 76.3396 284.503 91.3397L264.003 62.8397C303 48.3396 309 27.3396 343 24.3396V57.8396Z" fill="#D9D9D9"/>
<path d="M343 57.8396C313.5 60.3396 312 76.3396 284.503 91.3397L264.003 62.8397C303 48.3396 309 27.3396 343 24.3396V57.8396ZM341 26.5556C325.815 28.3103 316.554 33.8933 306.522 40.9155C296.394 48.0054 285.443 56.6001 267.142 63.7782L285.086 88.7251C297.611 81.6242 304.349 74.4464 311.728 68.359C319.159 62.2281 326.936 57.5366 340.999 56.0243L341 26.5556Z" fill="white"/>
<path d="M351.5 199.34C364 171.34 397.999 144.34 397.499 113.34L430.999 113.34C429.499 153.84 402.001 181.34 384.5 211.34L351.5 199.34Z" fill="#D9D9D9"/>
<path d="M351.5 199.34C364 171.34 397.999 144.34 397.499 113.34L430.999 113.34C429.499 153.84 402.001 181.34 384.5 211.34L351.5 199.34ZM383.622 208.892C387.83 201.822 392.551 194.889 397.285 187.94C402.354 180.501 407.441 173.039 412.027 165.261C420.866 150.27 427.767 134.225 428.9 115.34L399.484 115.339C399.024 130.768 390.593 145.08 381.007 158.62C378.492 162.173 375.877 165.699 373.285 169.19C370.689 172.688 368.116 176.15 365.662 179.607C361.216 185.867 357.214 192.039 354.236 198.207L383.622 208.892Z" fill="white"/>
<path d="M4 114.84H68V78.8396H4V114.84Z" fill="#D9D9D9"/>
<path d="M68 114.84V78.8396H4V114.84H68ZM6 80.8396H66V112.84H6V80.8396Z" fill="white"/>
<path d="M4 150.84H68V114.84H4V150.84Z" fill="#D9D9D9"/>
<path d="M68 150.84V114.84H4V150.84H68ZM6 116.84H66V148.84H6V116.84Z" fill="white"/>
<path d="M68 150.84H132V114.84L68 114.84V150.84Z" fill="#D9D9D9"/>
<path d="M132 150.84V114.84L68 114.84V150.84H132ZM70 116.84H130V148.84H70V116.84Z" fill="white"/>
<path d="M68 114.84L132 114.84V78.8396H68V114.84Z" fill="#D9D9D9"/>
<path d="M132 114.84V78.8396H68V114.84L132 114.84ZM70 80.8396H130V112.84H70V80.8396Z" fill="white"/>
<path d="M132 150.84H196V114.84H132V150.84Z" fill="#D9D9D9"/>
<path d="M196 150.84V114.84H132V150.84H196ZM134 116.84H194V148.84H134V116.84Z" fill="white"/>
<path d="M132 114.84H196V78.8396H132V114.84Z" fill="#D9D9D9"/>
<path d="M196 114.84V78.8396H132V114.84H196ZM134 80.8396H194V112.84H134V80.8396Z" fill="white"/>
<path d="M430.999 113.34C431.064 102.239 429.188 87.1204 425 76.8396C420.812 66.5588 412.5 56.3396 404 48.8396C396.196 40.9441 385.458 35.2115 375.227 30.9034C364.996 26.5953 354.016 24.3445 342.915 24.2797L342.718 57.9923C349.392 58.0313 355.993 59.3844 362.144 61.9744C368.294 64.5644 376.808 68.5929 381.5 73.3396C386.192 78.0863 390.982 83.6589 393.5 89.8396C396.018 96.0203 397.539 106.666 397.5 113.34L430.999 113.34Z" fill="#D9D9D9"/>
<path d="M430.999 113.34C431.064 102.239 429.188 87.1204 425 76.8396L424.595 75.8762C420.292 65.9228 412.234 56.1053 404 48.8396C396.196 40.9441 385.458 35.2115 375.227 30.9034L374.266 30.5052C364.31 26.4563 353.669 24.3425 342.915 24.2797L342.718 57.9923C349.183 58.03 355.58 59.3011 361.566 61.7352L362.144 61.9744C368.102 64.4835 376.279 68.3427 381.05 72.8971L381.5 73.3396C386.045 77.9379 390.682 83.3113 393.257 89.2617L393.5 89.8396C396.018 96.0203 397.539 106.666 397.5 113.34L430.999 113.34ZM399.47 111.34C399.243 104.509 397.752 94.9753 395.353 89.0854C392.678 82.5211 387.649 76.7153 382.922 71.9334C377.913 66.8653 369.035 62.706 362.92 60.1308C357.142 57.6979 350.982 56.3165 344.729 56.043L344.903 26.3159C355.059 26.6215 365.077 28.7992 374.451 32.7465C384.597 37.0189 395.05 42.6284 402.578 50.2452L402.625 50.2943L402.677 50.3395C411.027 57.7074 419.111 67.6857 423.148 77.5943C426.96 86.9533 428.834 100.631 428.99 111.34L399.47 111.34Z" fill="white"/>
<path d="M385 114.84C385 91.6437 366.196 72.8396 343 72.8396C319.804 72.8396 301 91.6437 301 114.84C301 138.036 319.804 156.84 343 156.84C366.196 156.84 385 138.036 385 114.84Z" fill="#7CCBF3"/>
<path d="M383 114.84C383 136.931 365.091 154.84 343 154.84C320.909 154.84 303 136.931 303 114.84C303 92.7482 320.909 74.8396 343 74.8396V72.8396C319.804 72.8396 301 91.6437 301 114.84C301 138.036 319.804 156.84 343 156.84C366.196 156.84 385 138.036 385 114.84C385 91.6437 366.196 72.8396 343 72.8396V74.8396C365.091 74.8396 383 92.7482 383 114.84Z" fill="white"/>
</g>
<circle id="goal-6b" cx="379" cy="266" r="4" fill="#FF7700"/>
<circle id="goal-6" cx="307" cy="266" r="4" fill="#FF7700"/>
<circle id="goal-5b" cx="385" cy="211" r="4" fill="#FF7700"/>
<circle id="goal-5" cx="300" cy="208" r="4" fill="#FF7700"/>
<circle id="goal-4b" cx="264" cy="63" r="4" fill="#FF7700"/>
<circle id="goal-4" cx="264" cy="164" r="4" fill="#FF7700"/>
<circle id="goal-3b" cx="196" cy="79" r="4" fill="#FF7700"/>
<circle id="goal-3" cx="196" cy="151" r="4" fill="#FF7700"/>
<circle id="goal-2b" cx="132" cy="79" r="4" fill="#FF7700"/>
<circle id="goal-2" cx="132" cy="151" r="4" fill="#FF7700"/>
<circle id="goal-1b" cx="68" cy="79" r="4" fill="#FF7700"/>
<circle id="goal-1" cx="68" cy="151" r="4" fill="#FF7700"/>
<circle id="exit-dir" cx="343" cy="276" r="4" fill="#00FF09"/>
<circle id="exit-point" cx="343" cy="266" r="4" fill="#00FF09"/>
<circle id="center-point" cx="229" cy="135" r="4" fill="#D500FF"/>
<circle id="entry-dir" cx="14" cy="115" r="4" fill="#FF0000"/>
<circle id="entry-point" cx="4" cy="115" r="4" fill="#FF0000"/>
</g>
</svg>
