<svg width="458" height="281" viewBox="0 0 458 281" fill="none" xmlns="http://www.w3.org/2000/svg">
<g id="xy">
<g id="vector-xy">
<path d="M405 14C406.105 14 407 14.8954 407 16V65.4756C407 65.8195 407.089 66.1574 407.258 66.457L415.975 81.9228C437.992 105.938 453 133.184 453 157.772C453 220.306 402.257 271 339.661 271C312.203 271 278.112 255.656 248.49 233.151L235.287 229.089C235.097 229.03 234.899 229 234.699 229H6C4.89543 229 4 228.105 4 227V103C4 101.895 4.89543 101 6 101H244.499C258.575 90.1274 270.472 76.91 279 62.6924V16C279 14.8954 279.895 14 281 14H405Z" fill="#8FD57D"/>
<path d="M234.699 227C235.101 227 235.497 227.062 235.875 227.178L249.078 231.24L249.418 231.344L249.7 231.559C279.165 253.944 312.831 269 339.661 269V271C312.203 271 278.112 255.656 248.49 233.151L235.287 229.089C235.097 229.03 234.899 229 234.699 229V227ZM451 157.772C451 133.926 436.388 107.148 414.5 83.2744L414.345 83.1055L414.232 82.9053L405.516 67.4394C405.178 66.8409 405 66.1641 405 65.4756V16H281V63.2461L280.715 63.7207C272.05 78.1667 259.981 91.5688 245.722 102.583L245.182 103H6V229C4.89543 229 4 228.105 4 227V103C4 101.895 4.89543 101 6 101H244.499C258.575 90.1274 270.472 76.91 279 62.6924V16C279 14.8954 279.895 14 281 14H405C406.105 14 407 14.8954 407 16V65.4756C407 65.8195 407.089 66.1574 407.258 66.457L415.975 81.9228C437.992 105.938 453 133.184 453 157.772C453 220.306 402.257 271 339.661 271V269C401.154 269 451 219.2 451 157.772ZM234.699 227V229H6V227H234.699Z" fill="black"/>
<path d="M283.5 145.5C258 163.103 230.002 165.5 195.746 165.5V129C223.502 129 243 129 264.5 116.5L283.5 145.5Z" fill="#D9D9D9"/>
<path d="M283.5 145.5C258 163.103 230.002 165.5 195.746 165.5V129C223.068 129 242.388 129 263.493 117.077L264.5 116.5L283.5 145.5ZM263.855 119.164C242.998 130.739 223.729 130.993 197.746 130.998L197.747 163.495C230.302 163.4 256.711 160.858 280.746 144.945L263.855 119.164Z" fill="white"/>
<path d="M343 14C343 42.5 343 55.5 332.5 81L300 72C308.5 51.5 307 38.5 307 14L343 14Z" fill="#D9D9D9"/>
<path d="M343 14C343 42.5 343 55.5 332.5 81L300 72C308.5 51.5 307 38.5 307 14L343 14ZM309.006 15.9988C309.078 38.2933 310.209 51.4589 302.691 70.6692L331.315 78.5961C340.757 55.1329 340.993 42.4424 340.999 15.9992L309.006 15.9988Z" fill="white"/>
<path d="M343 13.8649C343 41.0036 343 53.5 351.628 80.8649L384.5 68.5C379.128 48.5 379.128 36.5036 379.128 13.8649L343 13.8649Z" fill="#D9D9D9"/>
<path d="M343 13.8649C343 41.0036 343 53.5 351.628 80.8649L384.5 68.5C379.128 48.5 379.128 36.5036 379.128 13.8649L343 13.8649ZM377.129 15.8644C377.134 36.609 377.277 48.6113 382.106 67.2628L352.909 78.2459C345.204 53.2215 345.007 40.8946 345.002 15.864L377.129 15.8644Z" fill="white"/>
<path d="M332.5 81C321.5 110 308.5 125 283.502 145.5L264.501 116.5C287.255 100.606 290.5 93.5 300 72L332.5 81Z" fill="#D9D9D9"/>
<path d="M332.5 81C321.5 110 308.5 125 283.502 145.5L264.501 116.5C285.833 101.599 290.018 94.4222 298.286 75.8677L300 72L332.5 81ZM301.129 74.3875C296.768 84.2429 293.576 91.2178 288.82 97.5527C284.027 103.937 277.716 109.587 267.233 117.02L283.95 142.535C307.057 123.39 319.42 108.933 329.839 82.3379L301.129 74.3875Z" fill="white"/>
<path d="M285 188.5C259.5 170.897 233 165 195.921 165L195.921 200.958C223.676 200.958 243 204.5 264.5 217L285 188.5Z" fill="#D9D9D9"/>
<path d="M285 188.5C259.5 170.897 233 165 195.921 165L195.921 200.958C223.242 200.958 242.394 204.39 263.493 216.42L264.5 217L285 188.5ZM263.929 214.37C243.173 202.664 224.182 199.134 197.921 198.967L197.921 167.008C232.886 167.214 258.091 172.899 282.175 189.002L263.929 214.37Z" fill="white"/>
<path d="M343 222C313.5 219.5 312 203.5 284.503 188.5L264.003 217C303 231.5 309 252.5 343 255.5V222Z" fill="#D9D9D9"/>
<path d="M343 222C313.5 219.5 312 203.5 284.503 188.5L264.003 217C303 231.5 309 252.5 343 255.5V222ZM341 253.284C325.815 251.529 316.554 245.946 306.522 238.924C296.394 231.834 285.443 223.239 267.142 216.061L285.086 191.115C297.611 198.215 304.349 205.393 311.728 211.481C319.159 217.612 326.936 222.303 340.999 223.815L341 253.284Z" fill="white"/>
<path d="M351.5 80.5C364 108.5 397.999 135.5 397.499 166.5L430.999 166.5C429.499 126 402.001 98.5 384.5 68.5L351.5 80.5Z" fill="#D9D9D9"/>
<path d="M351.5 80.5C364 108.5 397.999 135.5 397.499 166.5L430.999 166.5C429.499 126 402.001 98.5 384.5 68.5L351.5 80.5ZM383.622 70.9473C387.83 78.018 392.551 84.951 397.285 91.8994C402.354 99.3385 407.441 106.801 412.027 114.579C420.866 129.57 427.767 145.614 428.9 164.499L399.484 164.5C399.024 149.071 390.593 134.76 381.007 121.22C378.492 117.667 375.877 114.141 373.285 110.649C370.689 107.152 368.116 103.689 365.662 100.233C361.216 93.9727 357.214 87.8003 354.236 81.633L383.622 70.9473Z" fill="white"/>
<path d="M4 165H68V201H4V165Z" fill="#D9D9D9"/>
<path d="M68 165V201H4V165H68ZM6 199H66V167H6V199Z" fill="white"/>
<path d="M4 129H68V165H4V129Z" fill="#D9D9D9"/>
<path d="M68 129V165H4V129H68ZM6 163H66V131H6V163Z" fill="white"/>
<path d="M68 129H132V165H68V129Z" fill="#D9D9D9"/>
<path d="M132 129V165H68V129H132ZM70 163H130V131H70V163Z" fill="white"/>
<path d="M68 165H132V201H68V165Z" fill="#D9D9D9"/>
<path d="M132 165V201H68V165H132ZM70 199H130V167H70V199Z" fill="white"/>
<path d="M132 129H196V165H132V129Z" fill="#D9D9D9"/>
<path d="M196 129V165H132V129H196ZM134 163H194V131H134V163Z" fill="white"/>
<path d="M132 165H196V201H132V165Z" fill="#D9D9D9"/>
<path d="M196 165V201H132V165H196ZM134 199H194V167H134V199Z" fill="white"/>
<path d="M430.999 166.5C431.064 177.601 429.188 192.719 425 203C420.812 213.281 412.5 223.5 404 231C396.196 238.895 385.458 244.628 375.227 248.936C364.996 253.244 354.016 255.495 342.915 255.56L342.718 221.847C349.392 221.808 355.993 220.455 362.144 217.865C368.294 215.275 376.808 211.247 381.5 206.5C386.192 201.753 390.982 196.181 393.5 190C396.018 183.819 397.539 173.174 397.5 166.5L430.999 166.5Z" fill="#D9D9D9"/>
<path d="M430.999 166.5C431.064 177.601 429.188 192.719 425 203L424.595 203.963C420.292 213.917 412.234 223.734 404 231C396.196 238.895 385.458 244.628 375.227 248.936L374.266 249.334C364.31 253.383 353.669 255.497 342.915 255.56L342.718 221.847C349.183 221.81 355.58 220.539 361.566 218.104L362.144 217.865C368.102 215.356 376.279 211.497 381.05 206.943L381.5 206.5C386.045 201.902 390.682 196.528 393.257 190.578L393.5 190C396.018 183.819 397.539 173.174 397.5 166.5L430.999 166.5ZM399.47 168.499C399.243 175.331 397.752 184.864 395.353 190.754C392.678 197.318 387.649 203.124 382.922 207.906C377.913 212.974 369.035 217.134 362.92 219.709C357.142 222.142 350.982 223.523 344.729 223.797L344.903 253.524C355.059 253.218 365.077 251.04 374.451 247.093C384.597 242.821 395.05 237.211 402.578 229.594L402.625 229.545L402.677 229.5C411.027 222.132 419.111 212.154 423.148 202.245C426.96 192.886 428.834 179.208 428.99 168.5L399.47 168.499Z" fill="white"/>
<path d="M385 165C385 188.196 366.196 207 343 207C319.804 207 301 188.196 301 165C301 141.804 319.804 123 343 123C366.196 123 385 141.804 385 165Z" fill="#7CCBF3"/>
<path d="M383 165C383 142.909 365.091 125 343 125C320.909 125 303 142.909 303 165C303 187.091 320.909 205 343 205V207C319.804 207 301 188.196 301 165C301 141.804 319.804 123 343 123C366.196 123 385 141.804 385 165C385 188.196 366.196 207 343 207V205C365.091 205 383 187.091 383 165Z" fill="white"/>
<path d="M189.092 156.657C189 155.833 189.594 155.092 190.417 155L203.834 153.509C204.658 153.418 205.399 154.011 205.491 154.835L206.981 168.252C207.073 169.075 206.48 169.817 205.656 169.908C204.833 170 204.092 169.406 204 168.583L202.909 158.765L189.171 175.937L186.829 174.063L200.566 156.891L190.748 157.982C189.925 158.073 189.183 157.48 189.092 156.657Z" fill="black"/>
</g>
<circle id="goal-6b" cx="379" cy="14" r="4" fill="#FF7700"/>
<circle id="goal-6" cx="307" cy="14" r="4" fill="#FF7700"/>
<circle id="goal-5b" cx="385" cy="68" r="4" fill="#FF7700"/>
<circle id="goal-5" cx="300" cy="72" r="4" fill="#FF7700"/>
<circle id="goal-4b" cx="264" cy="217" r="4" fill="#FF7700"/>
<circle id="goal-4" cx="264" cy="116" r="4" fill="#FF7700"/>
<circle id="goal-3b" cx="196" cy="129" r="4" fill="#FF7700"/>
<circle id="goal-3" cx="196" cy="201" r="4" fill="#FF7700"/>
<circle id="goal-2b" cx="132" cy="129" r="4" fill="#FF7700"/>
<circle id="goal-2" cx="132" cy="201" r="4" fill="#FF7700"/>
<circle id="goal-1b" cx="68" cy="129" r="4" fill="#FF7700"/>
<circle id="goal-1" cx="68" cy="201" r="4" fill="#FF7700"/>
<circle id="exit-dir" cx="343" cy="4" r="4" fill="#00FF09"/>
<circle id="exit-point" cx="343" cy="14" r="4" fill="#00FF09"/>
<circle id="center-point" cx="231" cy="146" r="4" fill="#D500FF"/>
<circle id="entry-dir" cx="14" cy="165" r="4" fill="#FF0000"/>
<circle id="entry-point" cx="4" cy="165" r="4" fill="#FF0000"/>
</g>
</svg>
